<?xml version="1.0" encoding="UTF-8"?>
<svg xmlns="http://www.w3.org/2000/svg" width="128" height="128" viewBox="0 0 100 100">
  <rect x="0" y="0" width="100" height="100" rx="22" fill="#121212"/>
  <!-- ring with gap centered at ~4 o’clock -->
  <circle cx="50" cy="50" r="38" fill="none" stroke="#f0f0f0" stroke-width="3.2"
          stroke-linecap="round" stroke-dasharray="230 14" transform="rotate(25 50 50)"/>
  <!-- sowilo-inspired single-glyph stroke (implied S via silhouette) -->
  <path d="M63 6 L56 18 L49 30 L61 33 L78 37 L60 52 L46 60 L56 93 L64 74 L70 62 L58 60 L40 56 L56 42 L68 34 L62 22 Z"
        fill="#f0f0f0"/>
  <path d="M62 8 L56 19 L50 30 L62 33 L77 37 L60 51 L47 59 L56 91 L63 74 L69 63 L57 61 L41 57 L56 43 L67 35 L62 23 Z"
        fill="#d8d8d8" opacity="0.55"/>
</svg>
